<?xml version="1.0" standalone="no"?>
<!DOCTYPE svg PUBLIC "-//W3C//DTD SVG 20010904//EN"
 "http://www.w3.org/TR/2001/REC-SVG-20010904/DTD/svg10.dtd">
<svg version="1.0" xmlns="http://www.w3.org/2000/svg"
 width="256.000000pt" height="256.000000pt" viewBox="0 0 256.000000 256.000000"
 preserveAspectRatio="xMidYMid meet">
<metadata>
Created by potrace 1.11, written by Peter Selinger 2001-2013
</metadata>
<g transform="translate(0.000000,256.000000) scale(0.100000,-0.100000)"
fill="#000000" stroke="none">
<path d="M1274 1798 c-27 -46 -53 -91 -59 -100 -5 -10 -43 -73 -82 -140 -40
-68 -97 -164 -126 -213 l-54 -90 60 -100 c32 -55 67 -113 76 -130 35 -62 224
-380 231 -389 10 -10 37 5 588 338 249 151 452 278 450 282 -2 5 -6 8 -10 7
-5 -2 -8 2 -8 8 0 5 -4 8 -9 5 -5 -3 -12 1 -15 10 -4 9 -9 14 -12 11 -3 -3
-44 19 -90 49 -46 30 -84 52 -84 48 0 -3 -7 2 -16 10 -8 9 -21 16 -29 16 -7 0
-16 7 -19 16 -3 8 -10 12 -16 9 -5 -3 -10 -1 -10 6 0 7 -3 10 -6 6 -3 -3 -15
3 -27 13 -11 11 -24 17 -29 14 -4 -3 -8 -1 -8 3 0 5 -17 17 -37 28 -21 11 -41
24 -45 30 -5 7 -8 7 -8 0 0 -5 -5 -3 -10 5 -5 8 -13 15 -17 15 -4 0 -22 10
-40 23 -17 12 -36 22 -42 22 -6 0 -11 5 -11 10 0 6 -4 10 -9 10 -5 0 -46 23
-90 50 -44 28 -85 50 -89 50 -5 0 -17 9 -27 20 -10 11 -22 17 -26 14 -5 -3 -9
-1 -9 4 0 5 -18 17 -40 27 -22 10 -40 22 -40 27 0 4 -5 8 -11 8 -6 0 -23 9
-39 20 -15 11 -30 17 -34 13 -3 -3 -6 -1 -6 5 0 29 -22 6 -66 -70z"/>
<path d="M413 1561 c-99 -34 -177 -115 -211 -221 -6 -21 -7 -151 -1 -177 3
-12 8 -26 12 -29 4 -4 7 -14 7 -21 0 -8 6 -21 13 -28 6 -8 26 -32 42 -53 54
-70 171 -117 270 -110 84 7 150 39 211 102 69 72 93 136 90 237 -6 177 -135
308 -311 315 -47 2 -87 -3 -122 -15z"/>
</g>
</svg>
